<?xml version="1.0" ?><svg xmlns="http://www.w3.org/2000/svg" xmlns:xlink="http://www.w3.org/1999/xlink" id="Layer_1" style="enable-background:new 0 0 81.006264 77.415291;" version="1.1" viewBox="0 0 81.006264 77.415291" xml:space="preserve"><style type="text/css">
	.st0{opacity:0.5;fill:#231F20;enable-background:new    ;}
	.st1{fill:#FFFFFF;}
	.st2{fill:#22093A;stroke:#22093A;stroke-linecap:round;stroke-linejoin:round;}
	.st3{fill:#FCC707;stroke:#22093A;stroke-linecap:round;stroke-linejoin:round;}
	.st4{fill:none;stroke:#22093A;stroke-linecap:round;stroke-linejoin:round;}
	.st5{fill:#FF897D;}
	.st6{fill:none;stroke:#FFFFFF;stroke-linecap:round;stroke-linejoin:round;}
</style><g id="Layer_2_00000081617581296249403410000005570550505570376068_"><g id="Layer_1-2"><path class="st0" d="M78.723091,44.134529c-1.638863-0.991001-5.671387-1.775089-9.04023-1.763191    c3.704475-4.853252,6.629333-10.254593,8.669136-16.009277c0.572372-1.73657-0.288307-3.621109-1.975578-4.32568    c-2.69532-1.126459-8.66272-1.605999-14.12775-1.8009c3.891598-2.30036,7.530819-8.4516,7.575001-8.53644    c2.221802-4.29779-0.48407-6.38855-1.050003-6.76367c-1.526749-0.988513-3.496109-0.970379-5.004391,0.04608    c-0.636753,0.408061-1.222649,0.890501-1.7453,1.43713c0.829433-2.303957-0.365902-4.844071-2.669857-5.673506    c-1.583252-0.569978-3.352711-0.194573-4.568142,0.969166c-1.940369,1.7193-3.227779,5.60205-2.598389,7.83868    c0.393185,1.475019,1.601425,2.591233,3.102909,2.86658h0.000999c0.224953,0.040353,0.453037,0.060716,0.68158,0.06085    c0.635201-0.004752,1.260151-0.160617,1.823189-0.45471c-1.198311,2.06677-2.021549,4.122001-1.907108,5.49652    c0.078506,0.996386,0.53289,1.925657,1.271061,2.599489c-0.868591-0.00836-1.680729-0.01136-2.407719-0.010559    C52.89106,10.134,45.145939,3.98462,43.812,2.98951C43.2915,2.51099,42.98,2.2566,42.98,2.2566    c-1.285545-1.046882-3.127628-1.053798-4.421001-0.0166c-4.843685,4.259279-8.422871,9.768485-10.346107,15.9251    c-0.061001-1.243469-0.81842-2.58673-2.469841-4.42974c0.393353,0.138689,0.806217,0.214087,1.2232,0.22338    c0.82295,0.00205,1.623533-0.267783,2.27734-0.76757c3.156252-2.40967,0.64942-8.29688,0.056641-9.27979    c-1.048458-2.184886-3.669601-3.106142-5.854488-2.057684C21.889078,2.60069,20.915176,4.191142,20.95746,5.91724    c0.054859,1.516411,0.479536,2.996431,1.237061,4.31122c-1.613024-1.493029-3.385307-2.804188-5.28491-3.90985    c-4.45215-2.397-6.59277,0.02148-7.144529,0.82031c-1.031661,1.561031-1.029353,3.587802,0.00586,5.14648    c1.611,2.83686,7.718629,7.478701,11.975461,9.172611c-4.94775,0.358459-10.89892,1.29376-14.9989,3.64966    c-1.408243,0.808771-2.075068,2.480076-1.610353,4.036129c1.81763,6.086432,7.647699,12.5376,11.647999,16.423101    c-3.8493-2.12677-12.53229,0.431641-12.62848,0.470459C1.04633,47.276619,0.49359,49.69117,0.96527,51.38208v0.001469    c0.507671,1.698898,1.980331,2.93079,3.74219,3.130371c0.472604,0.0765,0.95098,0.111629,1.42969,0.105    c3.00616,0,8.01172-1.01276,10.55756-2.686829c-0.397497,1.380039-0.722749,2.779869-0.97443,4.19379    c-0.261231-0.46077-0.618676-0.85984-1.048-1.170052c-3.0625-2.222649-7.47071,1.453621-8.209,2.27    c-1.662992,1.577831-1.785322,4.186562-0.27728,5.91309c0.798781,0.905758,1.951548,1.419964,3.15916,1.409184    c0.444611-0.001366,0.886916-0.06395,1.31445-0.185997c1.830976-0.656685,3.404335-1.881031,4.49072-3.49456    c-0.170961,2.66713-0.090692,5.344429,0.23975,7.996521l0.02832,0.290001c0.04883,0.504387,0.09863,1.008301,0.17383,1.527344    c0.277804,1.913246,2.054003,3.239037,3.967251,2.961235c0.180449-0.026207,0.358574-0.066467,0.532749-0.120415    c5.752644-1.896225,11.212547-4.585907,16.221769-7.991234c-0.304272,2.264488-0.419292,4.5504-0.343868,6.834    c0.488281,4.66748,3.56152,5.04541,4.49316,5.050301h0.017578c1.775211-0.02478,3.365456-1.103439,4.044918-2.74366    c1.008549-2.059868,1.420109-6.632622,1.090462-10.364189c0.876221,0.640869,1.776421,1.246696,2.688721,1.817749    c-0.1012,0.062798-0.203621,0.123001-0.29969,0.19635l-0.000999,0.000999c-3.011719,2.299316-0.75782,7.57325-0.189461,8.516121    c0.750519,1.420578,2.212074,2.322746,3.818359,2.356934c0.608345-0.000992,1.209293-0.133408,1.761719-0.388184    c1.520603-0.714653,2.4832-2.25209,2.461922-3.932129c-0.021488-1.073509-0.267429-2.130646-0.722-3.103401    c3.212379,1.475609,6.531048,2.707878,9.928001,3.686409c1.866409,0.505112,3.788902-0.598442,4.294014-2.464851    c0.040115-0.148232,0.070435-0.298935,0.090759-0.451149c0.546371-4.618172,0.349884-9.294041-0.582001-13.850098    c0.20533,0.36377,0.458183,0.698582,0.751892,0.995609c1.539413,1.359673,3.512825,2.12653,5.566399,2.163078    c0.523468,0.007374,1.044632-0.070633,1.542999-0.230949c1.372734-0.44603,2.365273-1.643543,2.548828-3.075199    c0.244507-1.971741-1.130371-3.44928-2.592278-4.42712c3.782219-0.413818,4.248413-3.2486,4.305168-3.847778    C81.107544,46.566879,80.22229,44.951,78.723091,44.134529z M56.553349,5.3346l0.02441-0.13721    c0.018501,0.0033,0.034241,0.01,0.052551,0.01361C56.605,5.25312,56.577942,5.291,56.553349,5.3346z M52.208618,71.914604    c-0.013-0.04425-0.022221-0.087097-0.036678-0.131844l0.079472,0.104187c-0.014042,0.010704-0.02869,0.017296-0.042793,0.027672    V71.914604z"/><path class="st1" d="M77.905632,43.64777c-1.638863-0.991001-5.671387-1.775089-9.04023-1.763191    c3.704468-4.853252,6.629326-10.254587,8.669128-16.00927c0.57238-1.736561-0.288284-3.621098-1.975533-4.325689    c-2.69532-1.126459-8.66272-1.606001-14.12775-1.8009c3.891598-2.30036,7.530819-8.4516,7.575001-8.53644    c2.221802-4.29779-0.48407-6.38855-1.050003-6.76367c-1.526749-0.988513-3.496109-0.970379-5.004391,0.04608    c-0.636753,0.408061-1.222649,0.890501-1.7453,1.43713c0.783409-2.219835-0.291817-4.666491-2.456875-5.59057    c-1.629623-0.668113-3.49939-0.321547-4.781311,0.88623c-1.940369,1.7193-3.227779,5.60205-2.59837,7.83868    c0.393185,1.475019,1.601425,2.591233,3.102909,2.86658h0.000999c0.224953,0.040353,0.453037,0.060716,0.68158,0.06085    c0.635201-0.00475,1.260147-0.160615,1.823181-0.45471c-1.198299,2.06677-2.021542,4.122001-1.907101,5.49652    c0.078503,0.996387,0.532887,1.925659,1.271061,2.599489c-0.868591-0.00836-1.680729-0.011351-2.407719-0.010559    c-1.861332-9.977-9.606441-16.126471-10.94043-17.12158c-0.520512-0.47852-0.832001-0.73291-0.832001-0.73291    c-1.285526-1.046834-3.127548-1.05375-4.420898-0.0166c-4.8437,4.259272-8.422892,9.76848-10.34613,15.9251    c-0.061001-1.24346-0.81842-2.58673-2.469851-4.42974c0.393354,0.138691,0.806225,0.214091,1.223209,0.22339    c0.82295,0.002048,1.623533-0.26779,2.27734-0.76758c3.15625-2.40967,0.64942-8.29688,0.056641-9.27979    c-1.048433-2.184898-3.669565-3.106185-5.854464-2.057752c-1.556704,0.746991-2.530628,2.337478-2.488327,4.063612    c0.054859,1.516411,0.479536,2.996431,1.237061,4.31122c-1.613024-1.493029-3.385307-2.804188-5.28491-3.90985    c-4.45215-2.397-6.59277,0.02148-7.144529,0.82031c-1.03166,1.561035-1.029352,3.587809,0.00586,5.146491    c1.611,2.83685,7.718619,7.478689,11.975459,9.1726C15.98119,21.32971,10.03,22.264999,5.93,24.620911    C4.521789,25.429689,3.854985,27.100969,4.31969,28.657c1.81762,6.086432,7.6477,12.5376,11.647999,16.423101    c-3.84931-2.12677-12.53229,0.431641-12.62848,0.470459c-3.11034,1.2393-3.66308,3.653851-3.1914,5.344761v0.001469    c0.507671,1.698898,1.980331,2.93079,3.74219,3.130371c0.472605,0.0765,0.95098,0.111629,1.42969,0.105    c3.00616,0,8.011719-1.01276,10.55755-2.686829c-0.397488,1.380039-0.722736,2.779873-0.97442,4.19379    c-0.261231-0.460754-0.618677-0.85981-1.048-1.169998c-3.0625-2.22266-7.4707,1.453609-8.209,2.27    c-1.663009,1.577812-1.785366,4.186546-0.27734,5.91309c0.798805,0.90575,1.951595,1.419937,3.159219,1.409126    c0.444612-0.001366,0.886916-0.063953,1.31445-0.186001c1.830974-0.656693,3.404333-1.881042,4.49072-3.494572    c-0.170961,2.66713-0.090692,5.344429,0.23975,7.996521l0.02832,0.290001c0.04883,0.504387,0.09863,1.008301,0.17383,1.527344    c0.277804,1.913246,2.054003,3.239037,3.967251,2.961235c0.180449-0.026207,0.358574-0.066467,0.532749-0.120415    c5.752655-1.896233,11.212568-4.58593,16.2218-7.991272c-0.304272,2.264511-0.419292,4.550438-0.343868,6.834053    c0.488281,4.66748,3.56152,5.04541,4.49316,5.050293h0.017578c1.775211-0.02478,3.365452-1.103432,4.044918-2.743652    c1.008541-2.059883,1.420101-6.632629,1.09045-10.364201c0.876221,0.640873,1.776428,1.2467,2.688721,1.817753    c-0.101189,0.062798-0.203609,0.123001-0.299679,0.19635l-0.000999,0.000999    c-3.011719,2.299316-0.75782,7.57325-0.189461,8.516121c0.750519,1.420578,2.212074,2.322746,3.818359,2.356934    c0.608345-0.000992,1.209293-0.133408,1.761719-0.388184c1.520599-0.714661,2.483192-2.252098,2.46191-3.932129    c-0.021484-1.073509-0.267422-2.130638-0.722-3.103394c3.212379,1.475609,6.531044,2.70787,9.927998,3.686401    c1.866409,0.505104,3.788902-0.598457,4.293999-2.464867c0.040115-0.148224,0.070435-0.298927,0.090759-0.451134    c0.546379-4.618172,0.349892-9.294041-0.582001-13.850098c0.205338,0.363766,0.458191,0.698578,0.7519,0.995609    c1.539413,1.359673,3.512825,2.12653,5.566399,2.163078c0.523468,0.007374,1.044632-0.070633,1.542999-0.230949    c1.372734-0.44603,2.365273-1.643543,2.548828-3.075199c0.244507-1.971741-1.130371-3.44928-2.592293-4.42712    c3.782227-0.413818,4.248421-3.2486,4.305183-3.847778C80.290077,46.080112,79.404823,44.464245,77.905632,43.64777z     M55.735889,4.84784l0.02441-0.13721c0.01849,0.0033,0.034241,0.01,0.052551,0.01361    C55.787521,4.76636,55.760479,4.80426,55.735889,4.84784z M51.391159,71.427841    c-0.013-0.04425-0.022221-0.087097-0.036678-0.131844l0.079472,0.104187c-0.014042,0.010704-0.028694,0.017296-0.042793,0.027672    V71.427841z"/><path class="st2" d="M65.161919,69.604683c0,0-17.488918-4.735947-24.28878-14.469685    C34.0933,64.792793,18.240231,69.703781,18.240231,69.703781c-2.023001-13.86451,4.569271-23.131203,4.569271-23.131203    S11.01226,36.750778,8.5242,28.418421c7.14124-4.102659,21.981291-3.323679,21.981291-3.323679    C31.508129,12.74137,40.792068,5.23835,40.792068,5.23835s9.576118,6.779329,10.030441,17.922001    c0,0,18.759491-0.303801,23.389458,1.63006c0,0-4.280289,12.980291-13.288189,20.319307    C60.923779,45.109711,66.789062,57.39867,65.161919,69.604683z"/><path class="st3" d="M64.31266,68.853149c0,0-16.59824-4.657669-23.398109-14.391388    C34.134712,64.11953,18.153,68.890762,18.153,68.890762c-2.023001-13.86451,3.80724-23.06971,3.80724-23.06971    S10.163,35.999249,7.67494,27.66688c7.14124-4.102659,21.981291-3.323679,21.981291-3.323679    C30.65888,11.98984,39.94281,4.48681,39.94281,4.48681s9.864899,8.06279,10.319191,19.20545    c7.711971-0.29435,15.435158,0.00724,23.100693,0.902081c0,0-4.107201,13.142658-13.115105,20.481709    C60.247589,45.07605,65.939812,56.647129,64.31266,68.853149z"/><path class="st4" d="M30.109831,33.067741c0,0-1.078341,5.796051,2.29146,6.065628s3.100208-6.065628,3.100208-6.065628"/><path class="st4" d="M46.150059,33.067741c0,0-0.232189,5.39167,2.579739,5.39167s2.811939-6.065628,2.811939-6.065628"/><path class="st4" d="M39.275681,38.137909c0,0-0.951649,4.178551,2.323601,4.178551    c2.022758,0,1.989738-4.178551,1.989738-4.178551"/><circle class="st5" cx="52.633911" cy="42.954441" r="3.828999"/><circle class="st5" cx="29.77573" cy="44.34454" r="4.40675"/><path class="st3" d="M65.63961,7.1454c1.784859,1.1861-5.908142,9.3469-6.743309,9.025281    C57.812489,15.7533,63.85474,5.95929,65.63961,7.1454z"/><path class="st3" d="M3.5206,49.966839c-0.56411-2.020889,10.35025-2.646,10.76336-1.864498    C14.82006,49.11647,4.08471,51.987728,3.5206,49.966839z"/><path class="st3" d="M11.83114,8.65037c1.64317-2.38249,12.48359,8.19549,12.02986,9.315731    C23.27216,19.419861,10.188,11.03286,11.83114,8.65037z"/><path class="st3" d="M76.686897,47.470531c-0.188461,2.0145-10.413902-0.734772-10.519791-1.573059    C66.029701,44.809608,76.875359,45.456001,76.686897,47.470531z"/><path class="st3" d="M39.66394,73.439857c-2.3992-0.011864-0.221539-12.377518,0.757549-12.59029    C41.692081,60.573448,42.063129,73.451721,39.66394,73.439857z"/><path class="st3" d="M24.15588,4.528c1.71452-0.79248,2.774639,4.92741,2.14761,5.406    C25.48978,10.555,22.44137,5.32052,24.15588,4.528z"/><path class="st3" d="M51.110649,73.15461c-1.43536,0.66346-2.32288-4.12513-1.797939-4.525772    C49.993931,68.108917,52.546001,72.491158,51.110649,73.15461z"/><path class="st3" d="M57.44286,3.54159c1.459309,0.609-1.468719,4.5006-2.118832,4.38472    C54.480358,7.77593,55.983551,2.93264,57.44286,3.54159z"/><path class="st3" d="M7.98792,60.340931c-1.04912-1.183121,3.280231-3.413589,3.8152-3.026459    C12.49737,57.816872,9.037,61.524052,7.98792,60.340931z"/><path class="st3" d="M71.04966,53.986198c0.465752-1.305809,4.008278,1.077999,3.936859,1.652561    C74.893829,56.384361,70.583908,55.292,71.04966,53.986198z"/><path class="st6" d="M20.33444,39.67527c0.88092,0.870609,1.583,1.566551,1.583,1.566551"/><path class="st6" d="M11.6885,29.065411c1.682675,2.811098,3.644178,5.445587,5.854819,7.86359"/><path class="st6" d="M36.460999,11.7437c0.856861-1.212811,1.108318-1.2669,1.108318-1.2669"/><path class="st6" d="M31.910049,23.703449c0.123848-3.261021,1.092533-6.433969,2.811192-9.2081"/><path class="st6" d="M29.73189,60.775639c0.36532-0.230259,0.690001-0.447338,0.96069-0.645"/><path class="st6" d="M20.29858,65.540092c2.728914-1.113091,5.380514-2.407036,7.93713-3.873211"/><path class="st6" d="M60.112629,50.834332c0.551552,1.486111,0.928417,3.031319,1.123001,4.604488"/><path class="st6" d="M58.66312,47.713161c0.16264,0.28978,0.350201,0.636829,0.54924,1.037861"/><path class="st6" d="M41.765549,9.29958c1.442059,1.512588,2.599796,3.272623,3.417721,5.19576"/><path class="st6" d="M64.842773,26.32752c0.746063,0.048269,1.399818,0.091,1.929108,0.11763"/><path class="st6" d="M54.297192,26.115089c2.904987-0.134216,5.815292-0.101294,8.716499,0.09861"/><path class="st2" d="M49.160252,58.580769c3.328754,2.209126,6.79493,4.203835,10.377449,5.971996"/><path class="st2" d="M46.32251,56.464142c0.395691,0.331871,0.825939,0.669941,1.282822,1.011002"/><path class="st2" d="M62.518711,39.451481c1.450748-1.56443,2.759693-3.254612,3.911404-5.050629"/></g></g></svg>